<svg width="36" height="22" fill="none" xmlns="http://www.w3.org/2000/svg"><path fill-rule="evenodd" clip-rule="evenodd" d="M32.044 15.136s2.91 2.875 3.63 4.205c.014.02.025.04.033.063.293.492.365.877.221 1.161-.243.47-1.066.706-1.345.726H29.44c-.358 0-1.103-.094-2.01-.72-.694-.485-1.383-1.282-2.05-2.061-.998-1.158-1.86-2.162-2.733-2.162-.11 0-.22.018-.324.054-.66.209-1.5 1.15-1.5 3.657 0 .785-.619 1.232-1.053 1.232h-2.356c-.803 0-4.982-.281-8.688-4.189C4.183 12.318.105 2.72.065 2.635c-.254-.62.279-.959.855-.959h5.195c.696 0 .923.421 1.081.8.184.433.864 2.168 1.98 4.118 1.808 3.171 2.918 4.462 3.806 4.462a.95.95 0 00.475-.126c1.159-.637.943-4.777.889-5.63 0-.166-.002-1.85-.596-2.663-.425-.583-1.148-.81-1.586-.893a1.88 1.88 0 01.684-.581c.794-.396 2.229-.454 3.653-.454h.79c1.544.022 1.944.121 2.505.263 1.13.27 1.152 1.003 1.053 3.498a59.814 59.814 0 00-.059 2.46c0 .202-.009.427-.009.655-.034 1.28-.08 2.722.824 3.314a.739.739 0 00.391.112c.313 0 1.251 0 3.794-4.365 1.116-1.928 1.98-4.201 2.04-4.372.05-.096.201-.364.385-.472a.862.862 0 01.425-.1h6.11c.667 0 1.119.1 1.207.352.147.409-.029 1.656-2.819 5.429-.47.628-.882 1.172-1.244 1.647-2.529 3.319-2.529 3.486.15 6.006z" fill="#fff"/></svg>