<svg width="16" height="12" fill="none" xmlns="http://www.w3.org/2000/svg"><path d="M15.189.038H.81A.512.512 0 00.3.549v1.029c0 .047.051.102.093.124L7.95 6.018a.127.127 0 00.128-.001l7.33-4.311c.04-.023.15-.084.191-.112.05-.034.1-.064.1-.125V.55a.512.512 0 00-.51-.511zm.447 3.092a.128.128 0 00-.128 0L11.36 5.57a.129.129 0 00-.062.092.127.127 0 00.033.105l4.148 4.472a.127.127 0 00.184.003.127.127 0 00.037-.09V3.24a.127.127 0 00-.063-.11zm-5.471 3.26a.127.127 0 00-.158-.024l-1.663.978a.649.649 0 01-.641.004L6.24 6.513a.128.128 0 00-.15.017L.533 11.683a.128.128 0 00.023.204c.086.05.17.075.254.075h14.23a.127.127 0 00.127-.15.127.127 0 00-.033-.065l-4.97-5.357zm-5.298-.47a.128.128 0 00-.023-.204L.49 3.229a.128.128 0 00-.19.111v6.524a.127.127 0 00.214.094L4.867 5.92z" fill="#333"/></svg>